<svg xmlns="http://www.w3.org/2000/svg" viewBox="0 0 1265.68945 1265.68945"><defs><style>.cls-1{fill:#f5f8fb;}.cls-2{fill:#e2eaf2;}</style></defs><title>RECF-BackgroundArtwork-1</title><g id="Layer_2" data-name="Layer 2"><g id="Layer_1-2" data-name="Layer 1"><path class="cls-1" d="M632.84473,1265.68945A633.00942,633.00942,0,0,1,386.51074,49.73584a633.00622,633.00622,0,0,1,492.668,1166.21826A628.89,628.89,0,0,1,632.84473,1265.68945Zm0-1249.35547C292.89941,16.334,16.334,292.89941,16.334,632.84473s276.56543,616.51074,616.51075,616.51074S1249.35547,972.79,1249.35547,632.84473,972.79,16.334,632.84473,16.334Z"/><circle class="cls-2" cx="66.11921" cy="901.37548" r="25.37278"/><circle class="cls-2" cx="288.3222" cy="104.73741" r="25.37278"/><path class="cls-2" d="M799.15839,662.51091v-58.5228l-38.06828-4.74347A131.48379,131.48379,0,0,0,747.67766,566.884l23.5697-30.27935-41.38193-41.38193-30.27934,23.5696a131.48493,131.48493,0,0,0-32.36084-13.41257L662.482,467.3115H603.95909l-4.74347,38.06828A131.483,131.483,0,0,0,566.855,518.79223l-30.27934-23.56948-41.38194,41.38193L518.76322,566.884a131.47416,131.47416,0,0,0-13.41245,32.36061l-38.06829,4.74347v58.5228l38.06829,4.74335A131.47676,131.47676,0,0,0,518.76322,699.615l-23.56949,30.27935,41.38194,41.38193,30.27934-23.5696a131.48331,131.48331,0,0,0,32.36061,13.41257l4.74347,38.06817H662.482l4.74324-38.06817a131.48917,131.48917,0,0,0,32.36084-13.41257l30.27934,23.5696,41.38193-41.38193L747.67766,699.615a131.48639,131.48639,0,0,0,13.41245-32.36073ZM632.9157,714.863a81.98842,81.98842,0,1,1,81.9883-81.98842A81.98851,81.98851,0,0,1,632.9157,714.863Z"/><path class="cls-1" d="M635.64355,869.26758a235.0556,235.0556,0,1,1,166.209-68.8457A233.51947,233.51947,0,0,1,635.64355,869.26758Zm0-459.75488c-123.89941,0-224.69921,100.7998-224.69921,224.70019,0,123.89941,100.7998,224.69922,224.69921,224.69922,123.9004,0,224.7002-100.79981,224.7002-224.69922C860.34375,510.3125,759.544,409.5127,635.64355,409.5127Z"/><path class="cls-1" d="M631.68164,960.08691a326.90426,326.90426,0,1,1,231.15723-95.748A324.76407,324.76407,0,0,1,631.68164,960.08691Zm0-643.4541c-174.5459,0-316.54883,142.00293-316.54883,316.54883S457.13574,949.73145,631.68164,949.73145,948.23145,807.72754,948.23145,633.18164,806.22754,316.63281,631.68164,316.63281Z"/><path class="cls-1" d="M629.35156,1063.86133a429.955,429.955,0,1,1,167.87793-33.89551A428.58468,428.58468,0,0,1,629.35156,1063.86133Zm0-850.4961c-231.15332,0-419.21,188.05665-419.21,419.21s188.05664,419.21093,419.21,419.21093S1048.5625,863.72852,1048.5625,632.5752,860.50488,213.36523,629.35156,213.36523Z"/><path class="cls-1" d="M634.09766,1168.33789A535.30616,535.30616,0,0,1,425.78418,140.0625a535.30415,535.30415,0,0,1,416.62695,986.2168A531.82349,531.82349,0,0,1,634.09766,1168.33789Zm0-1056.522c-287.47559,0-521.3545,233.87939-521.3545,521.355s233.87891,521.35449,521.3545,521.35449,521.35449-233.87891,521.35449-521.35449S921.57324,111.81592,634.09766,111.81592Z"/><circle class="cls-2" cx="360.60112" cy="1091.09046" r="43.13372"/><circle class="cls-2" cx="311.54661" cy="729.84674" r="29.43242"/><circle class="cls-2" cx="593.67448" cy="855.86988" r="27.91005"/><circle class="cls-2" cx="643.40512" cy="314.9223" r="27.91005"/><path class="cls-2" d="M776.76279,177.09645l36.6965.80469,36.69661.80469c6.381.13992,11.11268-5.90743,11.43175-12.70935l-16.23047-.35591a1.59558,1.59558,0,0,1,.06886-3.14l15.98674.35056a15.11388,15.11388,0,0,0-1.17164-3.91793l-6.527-14.31407-15.08478-.33078a1.59559,1.59559,0,0,1,.06885-3.14l13.56912.29755-8.31971-18.24561-12.92087-.28333a1.59559,1.59559,0,0,1,.06885-3.14l11.4051.25009-8.41016-18.44392-10.881-.2386a1.59559,1.59559,0,0,1,.06886-3.14l9.36528.20536-.30733-.674a7.32138,7.32138,0,0,1-.64054-3.18673l.32478-14.21611-16.41377-.35992a1.59559,1.59559,0,0,1,.06885-3.14l16.4166.36.22481-9.84057c.10107-4.36639,1.28642-3.79065,3.56709-7.22326.04858-2.21541-8.78967-4.206-19.74069-4.4461s-19.86793,1.36108-19.91651,3.57649c2.10626,3.66328,3.30673,2.95962,3.219,7.4211l-.55327,27.37245a6.334,6.334,0,0,1-.6746,2.72925l-11.48243,22.51177-19.18177,37.60652C763.0716,165.68872,768.18756,176.90841,776.76279,177.09645Z"/><path class="cls-2" d="M1075.484,961.14264c-.46652.89229.43713,2.41,2.25186,4.12076l-11.72413,22.4245c-4.64377-1.524-8.16808-1.70491-8.96943-.17219-.37233.71213-.112,1.71354.65464,2.887a3.2678,3.2678,0,0,0-.39793.58985l-23.70628,45.34234c-.01136.0219-.01568.0466-.02652.06863-4.02727-.9041-6.91693-.706-7.70913.80931-.91423,1.74846,1.16806,4.86768,5.14608,8.29968v.00013l-1.31359,2.5125c-.66092,1.26428.06179,2.9688,1.61446,3.80718s3.34716.49294,4.0082-.77134l.85988-1.64464q1.28433.86268,2.68363,1.71408l-4.21017,8.05274c-.66105,1.26428.06166,2.96879,1.61433,3.80705s3.34716.49307,4.0082-.77134l4.181-7.99685c1.29335.64707,2.56763,1.23932,3.809,1.77275l-2.02037,3.864c-.661,1.26441.0618,2.96893,1.61447,3.80718s3.34715.49307,4.0082-.77134l2.44639-4.679v-.00014c5.26862,1.567,9.1842,1.63017,10.1273-.17365.76307-1.45957-.56319-3.87462-3.33449-6.62875.03462-.05722.08087-.1062.112-.16581l1.94564-3.72156,6.667,3.59968,5.3964-10.32162c11.15,5.17727,16.46993,20.85208,12.0766,37.34641-2.74843,10.31884-7.28952,17.88262-13.15857,21.74981l-2.68677-2.73036a9.48359,9.48359,0,0,0-14.48105,1.14148c-2.67605-3.53914-4.89865-8.71309-5.03021-16.1558l3.31685,1.946,2.56841-4.52064-41.80518-24.52783-2.56828,4.52064,29.611,17.37335c-.4626,6.01075-.35665,17.53093,5.6339,26.71387H1030.4567l-3.42343-6.67524a7.96622,7.96622,0,0,0,2.35655.36732s.55568.03558.68662-.21283l4.09265-7.76828c.57739-1.09606-3.887-4.58306-9.97152-7.78856s-11.485-4.91571-12.06238-3.81978l-4.09265,7.76841c-.13081.24841.21283.68662.21283.68662.68309,1.14773,3.04892,3.02276,6.29837,4.99995l11.06561,21.57658H1054.916v5.714l-.08626.37549h-48.197a11.59646,11.59646,0,0,0-11.59645,11.59646v.15a11.59645,11.59645,0,0,0,11.59645,11.59645h85.40257a11.59646,11.59646,0,0,0,11.59646-11.59645v-.25948a11.65486,11.65486,0,0,0-11.06309-11.72212c-.08374-.09187-.16095-.18387-.25109-.27535l-5.06692-5.14926a58.81659,58.81659,0,0,0,18.00288-32.083c4.37661-22.60664-6.01786-48.43778-21.39759-56.85415v-.00014l4.47054-8.55072-6.66688-3.59968,3.25832-6.23219a3.34031,3.34031,0,0,0,.29852-.89773,2.5955,2.5955,0,0,0,2.28909-1.04337c.85884-1.64251-1.62687-4.81616-6.00361-8.1162l11.6703-22.3216.00013-.00014c2.2857.50848,3.9246.39218,4.37544-.47023.90351-1.728-3.30326-5.79568-9.396-9.08536S1076.3874,959.41463,1075.484,961.14264Zm-52.798,123.90172a42.54079,42.54079,0,0,1-8.464-5.53933.05341.05341,0,0,1,.04822-.09134,53.53,53.53,0,0,1,17.819,9.38769.05342.05342,0,0,1-.04823.09135A42.5393,42.5393,0,0,1,1022.686,1085.04436Z"/><path class="cls-1" d="M633.1543,716.80664a83.71289,83.71289,0,1,1,83.71289-83.71289A83.808,83.808,0,0,1,633.1543,716.80664Zm0-163.11133a79.39844,79.39844,0,1,0,79.39843,79.39844A79.48859,79.48859,0,0,0,633.1543,553.69531Z"/><path class="cls-1" d="M626.92578,716.03906c-43.18555-43.18554-41.667-85.97949-32.78808-114.27441a138.91856,138.91856,0,0,1,29.85644-51.37891l3.07617,3.02539c-.19531.19825-19.623,20.21-28.8623,49.792-12.32031,39.44824-1.63184,76.38476,31.76855,109.78515Z"/><path class="cls-1" d="M634.67969,715.92676l-3.05078-3.05078c33.40039-33.40039,44.08789-70.33692,31.76757-109.78418-9.23925-29.583-28.666-49.59375-28.86132-49.792l3.07617-3.02539a138.91985,138.91985,0,0,1,29.85644,51.37793C676.3457,629.94727,677.86523,672.74121,634.67969,715.92676Z"/><path class="cls-1" d="M634.93945,600.32031a84.44646,84.44646,0,0,1-23.20215-3.36621,110.97,110.97,0,0,1-37.8916-19.63379l2.79395-3.28808a108.6328,108.6328,0,0,0,36.42285,18.8125c28.16992,8.02441,53.34473,1.19922,74.8291-20.28418l3.05078,3.05078C672.02246,594.53125,652.1582,600.32031,634.93945,600.32031Z"/><path class="cls-1" d="M685.92578,695.4668c-19.85644-19.85645-43.26465-27.56055-69.56836-22.89746a104.12687,104.12687,0,0,0-42.01367,18.00879l-2.625-3.42383a108.81462,108.81462,0,0,1,43.88574-18.833c27.77735-4.92383,52.46192,3.18359,73.37207,24.09473Z"/><rect class="cls-1" x="551.52051" y="628.55469" width="163.40039" height="4.31445"/><rect class="cls-1" x="628.52637" y="551.54883" width="4.31445" height="163.40137"/><path class="cls-2" d="M1158.72485,347.86948h29.74487a1.8736,1.8736,0,0,1,1.8736,1.8736v4.37219a1.8735,1.8735,0,0,1-1.8735,1.8735h-29.745a1.8736,1.8736,0,0,1-1.8736-1.8736v-4.37209A1.8736,1.8736,0,0,1,1158.72485,347.86948Z"/><rect class="cls-2" x="1156.85125" y="359.0335" width="33.49206" height="8.11929" rx="1.8736" ry="1.8736"/><path class="cls-2" d="M1173.166,379.45255a10.27,10.27,0,0,0,10.26994-10.26994H1162.8961A10.27,10.27,0,0,0,1173.166,379.45255Z"/><path class="cls-2" d="M1149.27272,316.178s4.19176,7.54521,4.8206,14.14733c1.43594,15.07823.62873,14.67127,19.07271,14.14733,18.444.52394,17.63667.9309,19.07272-14.14733.62873-6.60212,4.8206-14.14733,4.8206-14.14733,7.12606-12.99465,12.15623-19.91113,11.31782-32.6961-2.18532-33.32595-35.21114-32.97886-35.21114-32.97886s-33.02591-.34709-35.21124,32.97886C1137.11648,296.26683,1142.14666,303.18331,1149.27272,316.178Zm6.84869-32.012c1.33745-.3657,2.9348-.88608,4.54556-1.50872q-.08659-.24012-.15927-.495c-1.045-3.66548.82978-8.34694,4.01207-10.018,2.19183-1.15126,4.53449-.58361,6.26712,1.51807a4.40141,4.40141,0,0,1,.97308,4.29808c-.74979,2.36136-3.64322,4.35082-6.69349,5.85019,1.43757.90926,3.59779,1.28776,6.364,1.09078a25.27712,25.27712,0,0,0,6.14423-1.14079,9.08227,9.08227,0,0,1-1.72439-4.84255,5.18467,5.18467,0,0,1,3.84375-5.5406,5.51942,5.51942,0,0,1,5.72315,1.49947,5.27852,5.27852,0,0,1,.64743,5.5714,9.47505,9.47505,0,0,1-3.64728,4.1385,14.483,14.483,0,0,0,5.5653,2.0907,1.40781,1.40781,0,0,1,1.14079,1.66768l-7.52906,36.18128h-3.68l8.1709-35.36889a15.69045,15.69045,0,0,1-6.42811-3.138,26.51819,26.51819,0,0,1-8.02424,1.69035c-2.2024.15947-6.803.11-9.46018-2.62105-1.5819.631-3.02719,1.10949-4.02884,1.41867l8.59433,39.03381H1163.63l-8.51413-39.722A1.40832,1.40832,0,0,1,1156.12141,284.166Z"/><path class="cls-2" d="M179.36716,299.20469V254.96642a2.75941,2.75941,0,0,0-4.06613-2.28474l-.01218.00609L153.99438,263.4627v-8.32778h-3.89657a22.88893,22.88893,0,0,0-11.551-41.01058,22.65417,22.65417,0,0,0-23.62647,15.827,22.60723,22.60723,0,0,0-44.03423,3.93737,22.91712,22.91712,0,0,0,8.85673,21.24624H75.84623v43.64117h78.14815v-8.06768l21.30665,10.781A2.7594,2.7594,0,0,0,179.36716,299.20469Zm-86.083-48.26584a13.699,13.699,0,1,1,13.699-13.699A13.699,13.699,0,0,1,93.28413,250.93885Zm13.63408,4.19607a22.7429,22.7429,0,0,0,8.00475-11.273,22.743,22.743,0,0,0,8.00476,11.273Zm29.64359-4.19607a13.699,13.699,0,1,1,13.69892-13.699A13.699,13.699,0,0,1,136.5618,250.93885Z"/><path class="cls-2" d="M811.74465,933.24955a19.44515,19.44515,0,1,0,28.1209-17.77638l-1.16616-60.1623a19.15026,19.15026,0,0,0-1.9454-34.28693l.42661,22.00871-15.50109.30047-.428-22.07936a19.14716,19.14716,0,0,0-.30253,34.63848l1.15887,59.78592A19.44025,19.44025,0,0,0,811.74465,933.24955Zm19.23447-11.05463a10.67985,10.67985,0,1,1-10.47081,10.88476A10.67981,10.67981,0,0,1,830.97912,922.19492Z"/><path class="cls-2" d="M361.175,275.08255c-.04054-.01171.1739,20.25747.19384,20.26831l11.70965,6.38125a2.68827,2.68827,0,0,1,1.42656,2.81419,2.60106,2.60106,0,0,1-2.54613,2.15975,2.53416,2.53416,0,0,1-1.21689-.31264l-15.09973-8.18573,1.01491-7.807-1.01491,7.21016V266.35912H340.4186v31.25174l1.01491-7.21016-.00215,6.82547-16.2589,8.18572a2.89544,2.89544,0,0,1-1.3102.31264,2.776,2.776,0,0,1-2.61219-1.7261,2.647,2.647,0,0,1,1.42421-3.25677l12.591-6.37232c.02147-.01084.25226-20.28.20861-20.26831a52.004,52.004,0,0,0-8.24916,3.18737V290.717h-5.07455V280.1775c.38652-.02914.38381-.19794.34209-.22689-15.7241,5.97374-26.5208,35.25709-27.23222,40.02256a10.29666,10.29666,0,0,1-3.96142,6.68419,7.49015,7.49015,0,0,0-3.078,6.20351l.07221,2.028a3.85689,3.85689,0,0,0,4.862,3.45432,215.20828,215.20828,0,0,1,55.18391-7.71106,215.20814,215.20814,0,0,1,55.18382,7.71106,3.85689,3.85689,0,0,0,4.862-3.45432l.07221-2.028a7.49015,7.49015,0,0,0-3.078-6.20351,10.2967,10.2967,0,0,1-3.96142-6.68419c-.71142-4.76547-11.50812-34.04882-27.23222-40.02256-.04182.029-.04443.19775-.27444.22689v11.55439l-5.07456-.03339V278.26992A46.26748,46.26748,0,0,0,361.175,275.08255Z"/><path class="cls-2" d="M159.75377,601.58585l-7.78534,1.4637-.14208-.767,7.78139-1.46295a54.88472,54.88472,0,0,0-6.24861-16.50057l-6.81091,3.91522-.38338-.67788,6.80042-3.90918a55.00485,55.00485,0,0,0-19.21546-19.17451l-3.86348,6.93681-.67447-.38193,3.86836-6.94564a53.89606,53.89606,0,0,0-26.15161-7.12662v8.29411h-1.01491v-8.61012a54.41093,54.41093,0,0,0-26.02558,6.74493l4.22212,7.46481-.67912.38405-4.224-7.46817a55.23791,55.23791,0,0,0-19.887,19.27125l7.69,4.22112-.37539.684-7.71354-4.23406a54.6114,54.6114,0,0,0-6.44239,16.628l8.02037,1.9476-.18384.75838-7.98833-1.93982a55.23333,55.23333,0,0,0-1.00718,10.50581l.26653,4.38782H69.3769v-4.05964h1.01491v4.05964H87.6453v-4.05964h1.01491v4.05964h17.25348v-4.05964h1.01491v4.05964h17.25349v-4.05964H125.197v4.05964h17.25349v-4.05964h1.01491v4.05964h17.25349V611.9146A55.6964,55.6964,0,0,0,159.75377,601.58585Zm-19.1086-1.82949h-68.066a1.44748,1.44748,0,0,1-1.38971-1.85622c3.75067-12.552,16.5726-24.54146,35.5329-24.54146,18.88378,0,30.44836,11.89285,35.29971,24.38942A1.47626,1.47626,0,0,1,140.64517,599.75636Z"/><polygon class="cls-2" points="863.508 540.385 828.33 540.385 845.274 514.656 828.774 489.64 861.068 489.64 861.068 478.476 812.352 478.476 812.352 485.478 831.479 514.029 812.352 543.314 812.352 551.549 862.134 551.549 863.508 540.385"/><path class="cls-2" d="M1035.41177,688.56316c-5.17058,5.2627-11.365,13.67167-11.51254,23.84591-.16016,11.04477,5.9505,19.85024,9.60718,24.11648a43.10669,43.10669,0,0,0,7.51777,6.92951,54.73124,54.73124,0,0,0-12.67782,13.33544l6.48956,4.19a45.54577,45.54577,0,0,1,14.52595-13.76583,45.55234,45.55234,0,0,1,14.12,14.18019l6.60792-4.00081a54.7358,54.7358,0,0,0-12.28493-13.69558,43.10836,43.10836,0,0,0,7.71554-6.70871c3.779-4.15843,10.14245-12.78331,10.3026-23.82779.14753-10.17423-5.80057-18.75927-10.81649-24.16968a58.723,58.723,0,0,0-6.34422-5.85487,43.08553,43.08553,0,0,0,7.73669-6.72271c3.69327-4.06392,9.85539-12.39457,10.28216-23.0808l.02024-1.30862h-.01094c-.14446-9.2851-5.92382-17.58331-10.81639-22.86062a58.71551,58.71551,0,0,0-6.32684-5.84133,44.5348,44.5348,0,0,0,12.25535-12.63536l-6.499-4.17513c-5.02466,7.82068-12.236,12.21556-14.07351,12.29467-1.85127-.13536-8.92969-4.73684-13.72426-12.69847l-6.6173,3.98493a44.53474,44.53474,0,0,0,11.88475,12.98582,58.702,58.702,0,0,0-6.494,5.65573c-5.04332,5.13323-11.06087,13.26038-11.49077,23.09862l-.02177,1.20605h.0094c.11664,10.23516,6.03473,18.741,9.60861,22.91028a43.07758,43.07758,0,0,0,7.53841,6.94421A58.73439,58.73439,0,0,0,1035.41177,688.56316Zm14.00613,50.45574c-1.10679-.08143-5.55079-2.40948-10.05212-7.72337-2.83307-3.34508-7.56837-10.18636-7.44888-18.42665.18386-12.67988,14.14635-23.20674,18.24147-25.3563a44.30384,44.30384,0,0,1,10.42115,9.16881l-17.52412-.2374c-.431.44318-.86815.91441-1.30943,1.42424a33.00372,33.00372,0,0,0-2.89159,3.88772l26.09005.3822a23.37872,23.37872,0,0,1,3.07919,9.76691l-33.27862-.461a20.48558,20.48558,0,0,0-.34318,3.07718,16.806,16.806,0,0,0,.20255,2.45839l33.0543.49225a29.63386,29.63386,0,0,1-4.06749,9.65686l-24.99246-.3378a38.14221,38.14221,0,0,0,4.23011,5.41236l16.03939.22911C1054.511,736.98764,1050.44733,738.97365,1049.4179,739.0189Zm-9.0506-67.71028,16.89053.22279c.42985-.44187.86576-.91181,1.30583-1.42024a32.91779,32.91779,0,0,0,2.88363-3.87711H1036.277l-3.52237-11.164,32.808.454a20.44833,20.44833,0,0,0,.34264-3.07331,16.786,16.786,0,0,0-.20219-2.45523l-32.98758-.49128a25.94217,25.94217,0,0,1,4.04136-9.65783l24.95164.33723a38.14308,38.14308,0,0,0-4.22973-5.41178l-16.2803-.23381a44.40569,44.40569,0,0,1,9.88239-7.90268c4.10777,2.31051,17.92382,13.36067,17.99281,26.24429-.27083,8.29107-5.23089,15.02-8.19533,18.32114-4.78617,5.3292-9.42458,7.58916-10.54819,7.63834C1049.22248,678.75726,1044.86513,676.46475,1040.3673,671.30862Z"/></g></g></svg>